<svg preserveAspectRatio="none" width="100%" height="100%" overflow="visible" style="display: block;" viewBox="0 0 118 31" fill="none" xmlns="http://www.w3.org/2000/svg">
<path id="Vector" d="M12.4276 17.299C12.0307 19.2429 11.2523 20.7378 10.0932 21.7849C8.93406 22.832 7.6518 23.3556 6.24576 23.3556C4.57197 23.3556 3.11212 22.6521 1.86687 21.2452C0.622289 19.8383 0 17.9381 0 15.5431C0 13.224 0.689563 11.3398 2.06869 9.88996C3.44782 8.4401 5.10277 7.71584 7.03489 7.71584C8.48332 7.71584 9.67475 8.09978 10.6085 8.86768C11.5423 9.63557 12.0092 10.4323 12.0092 11.2593C12.0092 11.6674 11.878 11.9976 11.6149 12.25C11.3512 12.5024 10.9839 12.6279 10.5116 12.6279C9.87859 12.6279 9.40161 12.4239 9.07937 12.0158C8.89705 11.7902 8.77596 11.3606 8.71676 10.7277C8.65756 10.094 8.44093 9.61073 8.06487 9.2778C7.6888 8.95561 7.16877 8.79451 6.50343 8.79451C5.4304 8.79451 4.56659 9.19188 3.91134 9.98662C3.04215 11.0391 2.60756 12.4292 2.60756 14.1583C2.60756 15.9197 3.03946 17.4736 3.90327 18.8214C4.76707 20.1692 5.93428 20.8425 7.40423 20.8425C8.45573 20.8425 9.40094 20.4834 10.2378 19.7638C10.8278 19.2705 11.4017 18.3737 11.9601 17.0742L12.4276 17.299ZM18.8348 7.71584V11.0337C20.0687 8.82203 21.3354 7.71584 22.6332 7.71584C23.2238 7.71584 23.7122 7.89573 24.0984 8.25551C24.4846 8.61529 24.6776 9.03146 24.6776 9.50401C24.6776 9.92286 24.5384 10.2773 24.2592 10.5666C23.98 10.8565 23.6477 11.0015 23.2615 11.0015C22.8854 11.0015 22.4643 10.8163 21.9981 10.4457C21.5312 10.0752 21.1847 9.88996 20.9594 9.88996C20.7663 9.88996 20.5571 9.99736 20.3317 10.2122C19.8487 10.6525 19.3495 11.3774 18.8342 12.3863V19.4577C18.8342 20.2733 18.9358 20.8908 19.1396 21.3097C19.2795 21.6003 19.5258 21.8413 19.881 22.0346C20.2348 22.2279 20.7441 22.3246 21.4094 22.3246V22.9045H13.8599V22.3246C14.6107 22.3246 15.1691 22.2064 15.5337 21.9702C15.8014 21.7983 15.9898 21.5251 16.0968 21.1492C16.1506 20.9667 16.1775 20.4451 16.1775 19.5866V13.8684C16.1775 12.15 16.1425 11.1277 16.0732 10.8002C16.0039 10.4726 15.8748 10.2336 15.6871 10.0833C15.4994 9.93292 15.2659 9.85774 14.9867 9.85774C14.6537 9.85774 14.2783 9.93829 13.8599 10.0994L13.6991 9.51944L18.1581 7.71517H18.8348V7.71584ZM33.8855 20.7781C32.3725 21.9487 31.4233 22.6253 31.0371 22.8072C30.4572 23.0757 29.8403 23.2099 29.1857 23.2099C28.1658 23.2099 27.3262 22.8609 26.6663 22.1635C26.007 21.4654 25.676 20.5471 25.676 19.4087C25.676 18.6892 25.8368 18.0663 26.159 17.5407C26.599 16.8104 27.3639 16.123 28.4531 15.4787C29.5423 14.8349 31.3533 14.0509 33.8855 13.1273V12.5474C33.8855 11.076 33.6521 10.0672 33.1858 9.51944C32.719 8.97172 32.0402 8.69785 31.1494 8.69785C30.4733 8.69785 29.9365 8.87976 29.5396 9.24491C29.1319 9.61006 28.928 10.0289 28.928 10.5015L28.9603 11.4358C28.9603 11.9298 28.8339 12.3111 28.5822 12.5796C28.3306 12.8481 28.0003 12.9823 27.592 12.9823C27.195 12.9823 26.8708 12.8427 26.6185 12.5635C26.3662 12.2843 26.2404 11.903 26.2404 11.4197C26.2404 10.4961 26.7127 9.64765 27.6566 8.87439C28.6011 8.10113 29.9264 7.71449 31.6325 7.71449C32.9416 7.71449 34.0147 7.93466 34.8522 8.37499C35.4846 8.70792 35.9522 9.22813 36.2522 9.93762C36.4453 10.3994 36.5422 11.3445 36.5422 12.7722V17.781C36.5422 19.1879 36.5691 20.0491 36.6229 20.3666C36.6767 20.6834 36.7648 20.8948 36.8886 21.0022C37.0124 21.1096 37.1544 21.1633 37.3152 21.1633C37.4874 21.1633 37.6374 21.1258 37.7666 21.0506C37.9919 20.911 38.4259 20.519 39.0703 19.8746V20.7767C37.8688 22.3877 36.7204 23.1932 35.6259 23.1932C35.0998 23.1932 34.6814 23.0113 34.3705 22.6454C34.0577 22.2816 33.8963 21.6587 33.8855 20.7781ZM33.8855 19.7309V14.11C32.2655 14.7537 31.2187 15.2108 30.7471 15.4787C29.8988 15.9512 29.2927 16.4446 28.928 16.9607C28.5706 17.4525 28.3791 18.0448 28.3811 18.6523C28.3811 19.4248 28.6118 20.0665 29.0727 20.5767C29.5349 21.0868 30.0657 21.3419 30.6664 21.3419C31.4818 21.3419 32.5548 20.8049 33.8855 19.7309ZM43.8986 0.000671186C44.3494 0.000671186 44.7328 0.159082 45.0497 0.475905C45.3666 0.792727 45.5247 1.17667 45.5247 1.62774C45.5247 2.07881 45.3666 2.46544 45.0497 2.78764C44.7328 3.10983 44.3494 3.27092 43.8986 3.27092C43.4479 3.27092 43.0617 3.10983 42.7395 2.78764C42.4173 2.46544 42.2565 2.07881 42.2565 1.62774C42.2565 1.17667 42.4146 0.792727 42.7308 0.475905C43.0476 0.159082 43.4365 0.000671186 43.8986 0.000671186ZM45.2347 7.71584V19.5705C45.2347 20.4935 45.302 21.1083 45.4359 21.4144C45.5697 21.7205 45.7682 21.9487 46.0312 22.099C46.295 22.2494 46.7746 22.3246 47.4723 22.3246V22.9045H40.3095V22.3246C41.028 22.3246 41.5111 22.2548 41.758 22.1152C42.0049 21.9755 42.2006 21.744 42.3453 21.4224C42.4906 21.1009 42.5626 20.4834 42.5626 19.5705V13.8845C42.5626 12.2843 42.5148 11.2479 42.4179 10.776C42.3426 10.4323 42.2248 10.1934 42.0641 10.0591C41.9033 9.92487 41.6833 9.85774 41.4041 9.85774C41.1041 9.85774 40.7388 9.93829 40.3095 10.0994L40.0842 9.51944L44.527 7.71517H45.2347V7.71584ZM53.235 17.5246C52.3335 17.0843 51.6413 16.4701 51.1582 15.6807C50.6752 14.8913 50.4344 14.0187 50.4344 13.0629C50.4344 11.603 50.984 10.3464 52.0839 9.29391C53.1845 8.24141 54.5926 7.71517 56.3094 7.71517C57.7155 7.71517 58.9331 8.05884 59.9638 8.74618H63.0873C63.5488 8.74618 63.8166 8.75961 63.8919 8.78646C63.9265 8.79761 63.9584 8.81545 63.986 8.83894C64.0136 8.86244 64.0363 8.89114 64.0527 8.92339C64.1173 9.02005 64.1496 9.19188 64.1496 9.4389C64.1496 9.71813 64.1227 9.91144 64.0689 10.0188C64.0282 10.0791 63.9689 10.1243 63.9 10.1477C63.8193 10.1799 63.5488 10.196 63.0873 10.196H61.1714C61.7728 10.9693 62.0728 11.9574 62.0728 13.1595C62.0728 14.5342 61.5474 15.7096 60.4953 16.6869C59.4431 17.6642 58.0323 18.1529 56.2617 18.1529C55.5317 18.1529 54.7863 18.0461 54.0241 17.8313C53.5519 18.2388 53.2323 18.5965 53.0661 18.9026C52.9 19.208 52.8165 19.4691 52.8165 19.6839C52.8165 19.8658 52.9054 20.0431 53.0823 20.2149C53.2599 20.3867 53.6057 20.5102 54.121 20.5861C54.421 20.6284 55.1725 20.666 56.3747 20.6988C58.5853 20.7525 60.0183 20.8271 60.6729 20.9244C61.6705 21.0633 62.4677 21.4345 63.0638 22.0353C63.6592 22.6367 63.9572 23.3771 63.9572 24.2584C63.9572 25.472 63.3881 26.6097 62.2504 27.673C60.5767 29.2403 58.3929 30.0243 55.6993 30.0243C53.6279 30.0243 51.8787 29.5578 50.4512 28.6228C49.6466 28.0865 49.2443 27.528 49.2443 26.948C49.2443 26.6903 49.3028 26.4325 49.4212 26.1754C49.6035 25.7781 49.9796 25.225 50.548 24.5162C50.6234 24.4195 51.171 23.8396 52.1902 22.7763C51.6318 22.4441 51.2376 22.146 51.0069 21.8829C50.7831 21.6387 50.6595 21.3196 50.6604 20.9888C50.6604 20.6123 50.8138 20.1726 51.1192 19.6678C51.424 19.1617 52.1297 18.4482 53.235 17.5246ZM56.0363 8.4891C55.2418 8.4891 54.5764 8.80592 54.0396 9.43957C53.5034 10.0732 53.235 11.0452 53.235 12.3547C53.235 14.0516 53.6003 15.3666 54.3295 16.3009C54.8879 17.0091 55.5963 17.3635 56.4547 17.3635C57.2701 17.3635 57.9408 17.0574 58.4663 16.4452C58.9923 15.8337 59.2554 14.8725 59.2554 13.563C59.2554 11.856 58.8847 10.5189 58.1447 9.55233C57.5971 8.84284 56.8941 8.4891 56.0363 8.4891ZM53.0735 22.9045C52.569 23.4516 52.1889 23.9617 51.9312 24.4343C51.6729 24.9068 51.5444 25.3418 51.5444 25.7385C51.5444 26.254 51.8559 26.7044 52.4788 27.0917C53.5519 27.7575 55.1019 28.0905 57.1309 28.0905C59.0623 28.0905 60.4865 27.7495 61.4048 27.0682C62.3224 26.3855 62.7812 25.6586 62.7812 24.8853C62.7812 24.3269 62.5074 23.9295 61.9598 23.6939C61.4021 23.4576 60.2968 23.3173 58.6439 23.275C56.2294 23.2099 54.3726 23.0864 53.0735 22.9045ZM75.3044 7.71584V12.7407H74.7729C74.3659 11.162 73.8419 10.0886 73.2034 9.51944C72.565 8.95024 71.7523 8.66563 70.7647 8.66563C70.0139 8.66563 69.4071 8.86432 68.9456 9.26169C68.4841 9.65906 68.254 10.0994 68.254 10.582C68.254 11.1834 68.4256 11.6989 68.7694 12.1285C69.1017 12.5689 69.7778 13.036 70.7977 13.5294L73.1476 14.6732C75.3259 15.7364 76.4151 17.1373 76.4151 18.8771C76.4151 20.2189 75.9085 21.3009 74.894 22.1225C73.8795 22.9441 72.7453 23.3549 71.4893 23.3549C70.5878 23.3549 69.5571 23.1938 68.398 22.871C68.0441 22.7642 67.7542 22.7105 67.5288 22.7105C67.2826 22.7105 67.0888 22.8502 66.9496 23.1294H66.4188V17.8622H66.9496C67.2496 19.3651 67.8241 20.4982 68.6725 21.2607C69.5201 22.0225 70.4701 22.4038 71.5216 22.4038C72.2622 22.4038 72.8657 22.1863 73.3319 21.7513C73.7988 21.3171 74.0322 20.7928 74.0322 20.1807C74.0322 19.4396 73.7719 18.8174 73.2518 18.3126C72.7318 17.8078 71.6931 17.1688 70.137 16.3962C68.581 15.6236 67.5611 14.9256 67.0781 14.302C66.595 13.6898 66.3542 12.9172 66.3542 11.9829C66.3542 10.7693 66.7699 9.75437 67.6015 8.93883C68.433 8.1226 69.5094 7.71449 70.8293 7.71449C71.4085 7.71449 72.1116 7.838 72.9384 8.08502C73.4853 8.24611 73.8499 8.32666 74.0329 8.32666C74.2045 8.32666 74.339 8.28907 74.4359 8.21389C74.5328 8.13871 74.6451 7.97225 74.7736 7.71449H75.3044V7.71584ZM83.6585 0.000671186V19.5705C83.6585 20.4935 83.7265 21.1056 83.8604 21.4057C83.9942 21.7064 84.2008 21.9353 84.48 22.091C84.7592 22.2467 85.2792 22.3246 86.0414 22.3246V22.9045H78.8134V22.3246C79.4895 22.3246 79.9511 22.2548 80.1979 22.1152C80.4448 21.9755 80.6379 21.744 80.7779 21.4224C80.9171 21.1009 80.9871 20.4834 80.9871 19.5705V6.16931C80.9871 4.50532 80.9494 3.48236 80.8747 3.1011C80.7994 2.72051 80.6783 2.4594 80.5121 2.31979C80.3459 2.18017 80.134 2.11036 79.8764 2.11036C79.5979 2.11036 79.244 2.19628 78.8141 2.36811L78.541 1.80428L82.9353 0L83.6585 0.000671186ZM91.4826 0.000671186C91.9333 0.000671186 92.3168 0.159082 92.633 0.475905C92.9498 0.792727 93.1079 1.17667 93.1079 1.62774C93.1079 2.07881 92.9498 2.46544 92.633 2.78764C92.3168 3.10983 91.9333 3.27092 91.4826 3.27092C91.0318 3.27092 90.645 3.10983 90.3228 2.78764C90.0005 2.46544 89.8397 2.07881 89.8397 1.62774C89.8397 1.17667 89.9978 0.792727 90.3147 0.475905C90.6315 0.159082 91.0211 0.000671186 91.4826 0.000671186ZM92.818 7.71584V19.5705C92.818 20.4935 92.8852 21.1083 93.0198 21.4144C93.1537 21.7205 93.3521 21.9487 93.6152 22.099C93.8782 22.2494 94.3579 22.3246 95.0562 22.3246V22.9045H87.8935V22.3246C88.612 22.3246 89.095 22.2548 89.3419 22.1152C89.5881 21.9755 89.7846 21.744 89.9292 21.4224C90.0745 21.1009 90.1465 20.4834 90.1465 19.5705V13.8845C90.1465 12.2843 90.0981 11.2479 90.0012 10.776C89.9265 10.4323 89.8081 10.1934 89.6473 10.0591C89.4865 9.92487 89.2665 9.85774 88.988 9.85774C88.6873 9.85774 88.3227 9.93829 87.8935 10.0994L87.6681 9.51944L92.1109 7.71517H92.818V7.71584ZM106.405 7.71584V12.7407H105.874C105.466 11.162 104.943 10.0886 104.304 9.51944C103.666 8.95024 102.853 8.66563 101.866 8.66563C101.114 8.66563 100.507 8.86432 100.047 9.26169C99.5844 9.65906 99.3544 10.0994 99.3544 10.582C99.3544 11.1834 99.5266 11.6989 99.8697 12.1285C100.203 12.5689 100.879 13.036 101.899 13.5294L104.249 14.6732C106.427 15.7364 107.516 17.1373 107.516 18.8771C107.516 20.2189 107.009 21.3009 105.994 22.1225C104.981 22.9441 103.846 23.3549 102.59 23.3549C101.688 23.3549 100.658 23.1938 99.499 22.871C99.1451 22.7642 98.8552 22.7105 98.6298 22.7105C98.3829 22.7105 98.1898 22.8502 98.0499 23.1294H97.5191V17.8622H98.0499C98.3506 19.3651 98.9252 20.4982 99.7728 21.2607C100.621 22.0225 101.57 22.4038 102.622 22.4038C103.363 22.4038 103.966 22.1863 104.433 21.7513C104.899 21.3171 105.133 20.7928 105.133 20.1807C105.133 19.4396 104.872 18.8174 104.352 18.3126C103.832 17.8078 102.793 17.1688 101.237 16.3962C99.6813 15.6236 98.6621 14.9256 98.1791 14.302C97.6954 13.6898 97.4545 12.9172 97.4545 11.9829C97.4545 10.7693 97.8703 9.75437 98.7018 8.93883C99.5333 8.1226 100.609 7.71449 101.93 7.71449C102.509 7.71449 103.212 7.838 104.038 8.08502C104.585 8.24611 104.95 8.32666 105.133 8.32666C105.305 8.32666 105.439 8.28907 105.536 8.21389C105.632 8.13871 105.745 7.97225 105.874 7.71449H106.405V7.71584ZM113.97 3.30247V8.1508H117.416V9.27847H113.97V18.8456C113.97 19.8014 114.107 20.4451 114.381 20.7781C114.655 21.111 115.006 21.2775 115.435 21.2775C115.789 21.2775 116.133 21.1674 116.465 20.9472C116.797 20.727 117.055 20.4022 117.237 19.9732H117.866C117.49 21.0251 116.958 21.8171 116.272 22.3487C115.586 22.8804 114.877 23.1462 114.147 23.1462C113.654 23.1462 113.171 23.0099 112.699 22.736C112.227 22.4622 111.878 22.0702 111.652 21.56C111.427 21.0499 111.314 20.2632 111.314 19.2V9.27847H108.98V8.74685C109.57 8.51058 110.173 8.11052 110.79 7.54669C111.407 6.98285 111.957 6.3143 112.441 5.54171C112.687 5.1336 113.031 4.38719 113.471 3.30314L113.97 3.30247Z" fill="var(--fill-0, #800080)"/>
</svg>
