<svg preserveAspectRatio="none" width="100%" height="100%" overflow="visible" style="display: block;" viewBox="0 0 769 197" fill="none" xmlns="http://www.w3.org/2000/svg">
<path id="Vector" d="M81.0595 113.261C78.4706 125.988 73.3937 135.775 65.8332 142.631C58.2726 149.487 49.9091 152.914 40.7382 152.914C29.8208 152.914 20.2989 148.309 12.1767 139.097C4.0589 129.886 0 117.445 0 101.764C0 86.5805 4.4977 74.2445 13.4931 64.7519C22.4885 55.2593 33.283 50.5174 45.8853 50.5174C55.3327 50.5174 63.1038 53.0311 69.1944 58.0587C75.2849 63.0863 78.3302 68.3028 78.3302 73.7171C78.3302 76.3891 77.4745 78.5513 75.7588 80.2037C74.0387 81.8561 71.6429 82.678 68.5625 82.678C64.4334 82.678 61.3223 81.342 59.2205 78.67C58.0313 77.1933 57.2415 74.3807 56.8553 70.2365C56.4692 66.0879 55.0562 62.9237 52.6033 60.7439C50.1505 58.6344 46.7585 57.5797 42.4188 57.5797C35.4199 57.5797 29.7857 60.1814 25.5118 65.3847C19.8425 72.2756 17.0079 81.3771 17.0079 92.6979C17.0079 104.23 19.825 114.403 25.4592 123.228C31.0934 132.053 38.7065 136.461 48.2943 136.461C55.1528 136.461 61.3179 134.109 66.7766 129.398C70.6249 126.168 74.3678 120.297 78.0099 111.789L81.0595 113.261ZM122.851 50.5174V72.2405C130.898 57.7599 139.161 50.5174 147.625 50.5174C151.478 50.5174 154.664 51.6951 157.183 54.0507C159.701 56.4063 160.961 59.131 160.961 62.2249C160.961 64.9672 160.052 67.2876 158.231 69.1818C156.41 71.0803 154.243 72.0295 151.724 72.0295C149.271 72.0295 146.524 70.8166 143.483 68.3907C140.438 65.9648 138.178 64.7519 136.708 64.7519C135.449 64.7519 134.084 65.455 132.614 66.8613C129.464 69.7443 126.208 74.4906 122.846 81.0959V127.394C122.846 132.734 123.509 136.777 124.839 139.519C125.751 141.422 127.357 143 129.674 144.266C131.982 145.531 135.304 146.164 139.644 146.164V149.961H90.4016V146.164C95.2986 146.164 98.9406 145.391 101.319 143.844C103.065 142.719 104.294 140.93 104.992 138.469C105.343 137.274 105.518 133.859 105.518 128.238V90.7994C105.518 79.5489 105.29 72.8557 104.838 70.7111C104.386 68.5665 103.544 67.002 102.319 66.0176C101.095 65.0331 99.5725 64.5409 97.7515 64.5409C95.5794 64.5409 93.1309 65.0683 90.4016 66.123L89.3528 62.326L118.437 50.513H122.851V50.5174ZM221.019 136.039C211.151 143.703 204.959 148.133 202.44 149.324C198.658 151.082 194.634 151.961 190.365 151.961C183.712 151.961 178.236 149.676 173.932 145.109C169.631 140.539 167.472 134.527 167.472 127.073C167.472 122.362 168.521 118.284 170.623 114.843C173.493 110.061 178.482 105.561 185.586 101.342C192.69 97.1278 204.503 91.9948 221.019 85.9476V82.1506C221.019 72.5174 219.497 65.9121 216.456 62.326C213.41 58.7399 208.983 56.9468 203.173 56.9468C198.763 56.9468 195.262 58.1378 192.673 60.5285C190.014 62.9193 188.684 65.6616 188.684 68.7555L188.895 74.8729C188.895 78.1074 188.07 80.6036 186.429 82.3615C184.787 84.1194 182.633 84.9984 179.969 84.9984C177.381 84.9984 175.266 84.0843 173.62 82.2561C171.975 80.4279 171.154 77.9317 171.154 74.7675C171.154 68.7203 174.234 63.1654 180.391 58.1027C186.551 53.0399 195.196 50.5086 206.324 50.5086C214.863 50.5086 221.862 51.95 227.325 54.833C231.449 57.0128 234.499 60.4187 236.456 65.0639C237.716 68.0875 238.347 74.2752 238.347 83.6228V116.416C238.347 125.628 238.523 131.266 238.874 133.345C239.225 135.419 239.8 136.803 240.607 137.507C241.415 138.21 242.34 138.561 243.389 138.561C244.513 138.561 245.491 138.315 246.334 137.823C247.804 136.909 250.634 134.342 254.838 130.123V136.03C247.001 146.577 239.51 151.851 232.371 151.851C228.94 151.851 226.21 150.66 224.183 148.265C222.143 145.883 221.089 141.805 221.019 136.039ZM221.019 129.183V92.3815C210.453 96.5961 203.625 99.5889 200.549 101.342C195.016 104.436 191.062 107.666 188.684 111.046C186.353 114.265 185.104 118.144 185.117 122.121C185.117 127.179 186.622 131.38 189.627 134.72C192.642 138.06 196.104 139.73 200.023 139.73C205.341 139.73 212.34 136.214 221.019 129.183ZM286.33 0.00439441C289.27 0.00439441 291.771 1.04155 293.838 3.11586C295.905 5.19017 296.936 7.70395 296.936 10.6572C296.936 13.6105 295.905 16.1418 293.838 18.2513C291.771 20.3608 289.27 21.4155 286.33 21.4155C283.39 21.4155 280.872 20.3608 278.77 18.2513C276.668 16.1418 275.619 13.6105 275.619 10.6572C275.619 7.70395 276.65 5.19017 278.713 3.11586C280.779 1.04155 283.316 0.00439441 286.33 0.00439441ZM295.045 50.5174V128.133C295.045 134.175 295.484 138.201 296.357 140.205C297.23 142.209 298.524 143.703 300.24 144.688C301.96 145.672 305.089 146.164 309.639 146.164V149.961H262.92V146.164C267.607 146.164 270.757 145.707 272.368 144.793C273.978 143.879 275.255 142.363 276.198 140.258C277.146 138.153 277.616 134.109 277.616 128.133V90.9049C277.616 80.4279 277.304 73.6424 276.672 70.5529C276.181 68.3028 275.413 66.7383 274.364 65.8593C273.315 64.9804 271.881 64.5409 270.059 64.5409C268.102 64.5409 265.72 65.0683 262.92 66.123L261.45 62.326L290.429 50.513H295.045V50.5174ZM347.227 114.737C341.347 111.855 336.832 107.833 333.681 102.665C330.531 97.497 328.96 91.7838 328.96 85.5257C328.96 75.9672 332.545 67.7403 339.719 60.8494C346.898 53.9584 356.082 50.513 367.28 50.513C376.451 50.513 384.393 52.7631 391.116 57.2633H411.489C414.499 57.2633 416.246 57.3512 416.737 57.5269C416.962 57.6 417.171 57.7168 417.351 57.8706C417.531 58.0244 417.679 58.2123 417.786 58.4235C418.207 59.0563 418.418 60.1814 418.418 61.7986C418.418 63.6268 418.242 64.8925 417.891 65.5957C417.626 65.9899 417.239 66.2863 416.79 66.4395C416.263 66.6504 414.499 66.7559 411.489 66.7559H398.992C402.915 71.8186 404.872 78.2876 404.872 86.1586C404.872 95.159 401.445 102.854 394.582 109.253C387.719 115.652 378.518 118.851 366.969 118.851C362.208 118.851 357.346 118.152 352.374 116.746C349.294 119.413 347.209 121.756 346.125 123.76C345.042 125.759 344.498 127.469 344.498 128.875C344.498 130.066 345.077 131.226 346.231 132.352C347.389 133.477 349.645 134.285 353.006 134.782C354.963 135.059 359.864 135.305 367.706 135.52C382.125 135.872 391.471 136.36 395.741 136.997C402.248 137.906 407.448 140.337 411.336 144.27C415.219 148.208 417.163 153.055 417.163 158.825C417.163 166.771 413.451 174.22 406.03 181.181C395.113 191.443 380.87 196.576 363.3 196.576C349.789 196.576 338.381 193.522 329.069 187.4C323.821 183.888 321.197 180.232 321.197 176.435C321.197 174.747 321.579 173.06 322.351 171.377C323.54 168.775 325.993 165.154 329.701 160.513C330.193 159.88 333.764 156.083 340.412 149.122C336.77 146.946 334.199 144.995 332.694 143.272C331.235 141.674 330.428 139.585 330.434 137.419C330.434 134.953 331.434 132.075 333.427 128.77C335.414 125.456 340.017 120.785 347.227 114.737ZM365.498 55.5801C360.316 55.5801 355.977 57.6544 352.475 61.803C348.978 65.9516 347.227 72.3152 347.227 80.8893C347.227 91.9992 349.61 100.608 354.366 106.726C358.008 111.362 362.629 113.683 368.228 113.683C373.546 113.683 377.921 111.679 381.348 107.671C384.779 103.667 386.495 97.3739 386.495 88.7998C386.495 77.624 384.077 68.8697 379.25 62.5413C375.679 57.8961 371.093 55.5801 365.498 55.5801ZM346.174 149.961C342.883 153.543 340.403 156.883 338.723 159.977C337.038 163.071 336.2 165.918 336.2 168.516C336.2 171.891 338.231 174.84 342.295 177.375C349.294 181.735 359.404 183.915 372.638 183.915C385.236 183.915 394.525 181.682 400.515 177.222C406.5 172.752 409.493 167.993 409.493 162.93C409.493 159.274 407.707 156.672 404.135 155.129C400.497 153.582 393.288 152.664 382.506 152.387C366.758 151.961 354.647 151.152 346.174 149.961ZM491.175 50.5174V83.4163H487.709C485.054 73.0799 481.636 66.0527 477.472 62.326C473.307 58.5993 468.007 56.7359 461.565 56.7359C456.668 56.7359 452.71 58.0367 449.7 60.6384C446.69 63.2401 445.189 66.123 445.189 69.2828C445.189 73.2205 446.308 76.5957 448.55 79.4083C450.718 82.2912 455.128 85.35 461.78 88.5801L477.107 96.0687C491.316 103.03 498.42 112.202 498.42 123.593C498.42 132.378 495.116 139.462 488.499 144.841C481.881 150.22 474.483 152.91 466.291 152.91C460.411 152.91 453.689 151.855 446.128 149.741C443.82 149.043 441.929 148.691 440.459 148.691C438.853 148.691 437.589 149.605 436.681 151.433H433.218V116.948H436.681C438.638 126.788 442.385 134.206 447.918 139.199C453.447 144.187 459.643 146.683 466.502 146.683C471.333 146.683 475.269 145.259 478.31 142.411C481.355 139.568 482.878 136.135 482.878 132.127C482.878 127.276 481.179 123.202 477.787 119.897C474.395 116.592 467.62 112.408 457.471 107.35C447.322 102.292 440.669 97.7211 437.519 93.6384C434.368 89.6304 432.797 84.5721 432.797 78.4546C432.797 70.509 435.509 63.8641 440.933 58.5245C446.356 53.1806 453.377 50.5086 461.986 50.5086C465.764 50.5086 470.35 51.3172 475.743 52.9345C479.31 53.9892 481.688 54.5166 482.882 54.5166C484.001 54.5166 484.878 54.2705 485.51 53.7782C486.142 53.286 486.875 52.1961 487.713 50.5086H491.175V50.5174ZM545.665 0.00439441V128.133C545.665 134.175 546.109 138.183 546.982 140.148C547.855 142.117 549.202 143.615 551.023 144.635C552.844 145.654 556.236 146.164 561.208 146.164V149.961H514.063V146.164C518.473 146.164 521.483 145.707 523.094 144.793C524.704 143.879 525.963 142.363 526.876 140.258C527.784 138.153 528.241 134.109 528.241 128.133V40.3919C528.241 29.4974 527.995 22.7998 527.508 20.3036C527.016 17.8118 526.227 16.1023 525.143 15.1882C524.059 14.2741 522.677 13.817 520.996 13.817C519.179 13.817 516.871 14.3795 514.067 15.5046L512.286 11.813L540.948 0L545.665 0.00439441ZM596.698 0.00439441C599.638 0.00439441 602.139 1.04155 604.201 3.11586C606.268 5.19017 607.299 7.70395 607.299 10.6572C607.299 13.6105 606.268 16.1418 604.201 18.2513C602.139 20.3608 599.638 21.4155 596.698 21.4155C593.758 21.4155 591.235 20.3608 589.133 18.2513C587.031 16.1418 585.982 13.6105 585.982 10.6572C585.982 7.70395 587.014 5.19017 589.08 3.11586C591.147 1.04155 593.688 0.00439441 596.698 0.00439441ZM605.408 50.5174V128.133C605.408 134.175 605.847 138.201 606.724 140.205C607.598 142.209 608.892 143.703 610.608 144.688C612.324 145.672 615.452 146.164 620.007 146.164V149.961H573.288V146.164C577.974 146.164 581.125 145.707 582.735 144.793C584.341 143.879 585.623 142.363 586.566 140.258C587.514 138.153 587.983 134.109 587.983 128.133V90.9049C587.983 80.4279 587.667 73.6424 587.035 70.5529C586.548 68.3028 585.776 66.7383 584.727 65.8593C583.679 64.9804 582.244 64.5409 580.427 64.5409C578.466 64.5409 576.087 65.0683 573.288 66.123L571.818 62.326L600.796 50.513H605.408V50.5174ZM694.028 50.5174V83.4163H690.566C687.907 73.0799 684.493 66.0527 680.329 62.326C676.165 58.5993 670.859 56.7359 664.422 56.7359C659.521 56.7359 655.563 58.0367 652.557 60.6384C649.543 63.2401 648.042 66.123 648.042 69.2828C648.042 73.2205 649.165 76.5957 651.403 79.4083C653.575 82.2912 657.985 85.35 664.637 88.5801L679.965 96.0687C694.173 103.03 701.277 112.202 701.277 123.593C701.277 132.378 697.969 139.462 691.351 144.841C684.739 150.22 677.336 152.91 669.144 152.91C663.264 152.91 656.546 151.855 648.985 149.741C646.677 149.043 644.786 148.691 643.316 148.691C641.706 148.691 640.446 149.605 639.534 151.433H636.071V116.948H639.534C641.495 126.788 645.242 134.206 650.771 139.199C656.304 144.187 662.496 146.683 669.354 146.683C674.186 146.683 678.122 145.259 681.167 142.411C684.208 139.568 685.73 136.135 685.735 132.127C685.73 127.276 684.032 123.202 680.64 119.897C677.248 116.592 670.473 112.408 660.324 107.35C650.174 102.292 643.527 97.7211 640.376 93.6384C637.221 89.6304 635.65 84.5721 635.65 78.4546C635.65 70.509 638.362 63.8641 643.785 58.5245C649.209 53.1806 656.225 50.5086 664.839 50.5086C668.617 50.5086 673.203 51.3172 678.591 52.9345C682.159 53.9892 684.541 54.5166 685.735 54.5166C686.854 54.5166 687.727 54.2705 688.359 53.7782C688.991 53.286 689.728 52.1961 690.566 50.5086H694.028V50.5174ZM743.376 21.622V53.3651H765.846V60.7483H743.376V123.386C743.376 129.644 744.266 133.859 746.052 136.039C747.838 138.218 750.133 139.308 752.928 139.308C755.236 139.308 757.479 138.588 759.646 137.146C761.814 135.705 763.495 133.578 764.684 130.769H768.782C766.329 137.656 762.863 142.842 758.387 146.322C753.911 149.803 749.291 151.543 744.53 151.543C741.309 151.543 738.158 150.651 735.082 148.858C732.002 147.065 729.724 144.499 728.254 141.159C726.785 137.819 726.047 132.668 726.047 125.707V60.7483H710.825V57.2677C714.674 55.7207 718.61 53.1015 722.633 49.4099C726.657 45.7183 730.242 41.3412 733.397 36.2828C735.003 33.6109 737.246 28.7239 740.115 21.6264L743.376 21.622Z" fill="var(--fill-0, #800080)"/>
</svg>
