<svg preserveAspectRatio="none" width="100%" height="100%" overflow="visible" style="display: block;" viewBox="0 0 392 101" fill="none" xmlns="http://www.w3.org/2000/svg">
<path id="Vector" d="M41.285 57.6635C39.9664 64.1431 37.3806 69.1259 33.5299 72.6164C29.6792 76.1068 25.4195 77.852 20.7486 77.852C15.1883 77.852 10.3386 75.5071 6.2018 70.8174C2.06726 66.1278 0 59.7935 0 51.8103C0 44.0799 2.29075 37.7994 6.87226 32.9665C11.4538 28.1337 16.9516 25.7195 23.3702 25.7195C28.1819 25.7195 32.1398 26.9993 35.2419 29.5589C38.3439 32.1186 39.8949 34.7744 39.8949 37.5309C39.8949 38.8913 39.4591 39.9921 38.5852 40.8334C37.7092 41.6747 36.4889 42.0931 34.92 42.0931C32.817 42.0931 31.2325 41.4129 30.162 40.0525C29.5563 39.3008 29.154 37.8688 28.9574 35.7589C28.7607 33.6467 28.0411 32.0358 26.7918 30.926C25.5425 29.852 23.8149 29.315 21.6046 29.315C18.04 29.315 15.1704 30.6396 12.9936 33.2887C10.1061 36.7971 8.6624 41.4308 8.6624 47.1945C8.6624 53.0655 10.0972 58.2452 12.9668 62.738C15.8364 67.2308 19.7139 69.475 24.5971 69.475C28.0902 69.475 31.2302 68.2779 34.0104 65.8794C35.9704 64.2349 37.8768 61.2456 39.7317 56.9139L41.285 57.6635ZM62.57 25.7195V36.7792C66.6688 29.4068 70.877 25.7195 75.1881 25.7195C77.1504 25.7195 78.7729 26.3191 80.0557 27.5184C81.3385 28.7176 81.9799 30.1049 81.9799 31.68C81.9799 33.0762 81.5173 34.2576 80.5898 35.2219C79.6624 36.1885 78.5583 36.6718 77.2755 36.6718C76.0262 36.6718 74.6272 36.0542 73.0784 34.8192C71.5274 33.5841 70.3764 32.9665 69.6277 32.9665C68.9863 32.9665 68.2913 33.3245 67.5426 34.0405C65.938 35.5083 64.2797 37.9247 62.5677 41.2876V64.8591C62.5677 67.5776 62.9052 69.6361 63.5824 71.0322C64.0472 72.0011 64.8652 72.8043 66.0452 73.4487C67.2208 74.0931 68.9126 74.4153 71.1229 74.4153V76.3484H46.043V74.4153C48.5372 74.4153 50.3921 74.0215 51.6034 73.2339C52.4929 72.6611 53.1187 71.7505 53.474 70.4975C53.6528 69.8889 53.7422 68.1504 53.7422 65.2887V46.2279C53.7422 40.5 53.626 37.0924 53.3958 36.0005C53.1656 34.9087 52.7365 34.1121 52.113 33.6109C51.4894 33.1097 50.7139 32.8591 49.7865 32.8591C48.6802 32.8591 47.4331 33.1276 46.043 33.6646L45.5089 31.7315L60.3217 25.7172H62.57V25.7195ZM112.569 69.2602C107.543 73.1623 104.389 75.4176 103.106 76.024C101.18 76.919 99.1304 77.3665 96.9559 77.3665C93.5678 77.3665 90.7787 76.203 88.5862 73.8783C86.3961 71.5513 85.2965 68.4905 85.2965 64.6958C85.2965 62.2972 85.8306 60.2209 86.9011 58.469C88.3628 56.0346 90.9038 53.7435 94.5221 51.5955C98.1404 49.4498 104.157 46.8365 112.569 43.7578V41.8246C112.569 36.9201 111.793 33.5572 110.244 31.7315C108.693 29.9057 106.438 28.9928 103.479 28.9928C101.233 28.9928 99.45 29.5992 98.1314 30.8164C96.7771 32.0335 96.0999 33.4297 96.0999 35.0049L96.2072 38.1194C96.2072 39.7662 95.787 41.037 94.9512 41.932C94.1153 42.827 93.018 43.2745 91.6614 43.2745C90.3429 43.2745 89.2656 42.8091 88.4276 41.8783C87.5895 40.9475 87.1716 39.6767 87.1716 38.0657C87.1716 34.987 88.7405 32.1588 91.876 29.5813C95.0138 27.0038 99.4165 25.715 105.084 25.715C109.433 25.715 112.998 26.4489 115.78 27.9166C117.881 29.0264 119.434 30.7604 120.431 33.1254C121.072 34.6648 121.394 37.8151 121.394 42.5741V59.27C121.394 63.9597 121.484 66.8303 121.662 67.8886C121.841 68.9447 122.134 69.6495 122.545 70.0075C122.956 70.3655 123.428 70.5445 123.962 70.5445C124.534 70.5445 125.033 70.4192 125.462 70.1686C126.21 69.7032 127.652 68.3965 129.793 66.2486V69.2557C125.802 74.6256 121.987 77.3105 118.35 77.3105C116.603 77.3105 115.213 76.7042 114.18 75.4848C113.141 74.2721 112.605 72.1957 112.569 69.2602ZM112.569 65.7698V47.0334C107.187 49.1791 103.71 50.7028 102.143 51.5955C99.3249 53.1707 97.3112 54.8152 96.0999 56.5358C94.9127 58.175 94.2764 60.1494 94.283 62.1742C94.283 64.7495 95.0495 66.8885 96.5804 68.5889C98.1158 70.2894 99.8791 71.1396 101.875 71.1396C104.584 71.1396 108.148 69.3497 112.569 65.7698ZM145.833 0.00223729C147.33 0.00223729 148.604 0.530274 149.657 1.58635C150.709 2.64242 151.234 3.92224 151.234 5.42581C151.234 6.92937 150.709 8.21814 149.657 9.29212C148.604 10.3661 147.33 10.9031 145.833 10.9031C144.335 10.9031 143.053 10.3661 141.982 9.29212C140.912 8.21814 140.377 6.92937 140.377 5.42581C140.377 3.92224 140.903 2.64242 141.953 1.58635C143.006 0.530274 144.297 0.00223729 145.833 0.00223729ZM150.271 25.7195V65.235C150.271 68.3115 150.495 70.361 150.939 71.3813C151.384 72.4016 152.043 73.1623 152.917 73.6635C153.793 74.1647 155.387 74.4153 157.704 74.4153V76.3484H133.91V74.4153C136.297 74.4153 137.901 74.1826 138.721 73.7172C139.542 73.2518 140.192 72.4799 140.672 71.4081C141.155 70.3364 141.394 68.2779 141.394 65.235V46.2816C141.394 40.9475 141.236 37.4929 140.914 35.92C140.663 34.7744 140.272 33.9779 139.738 33.5304C139.204 33.0829 138.473 32.8591 137.546 32.8591C136.549 32.8591 135.336 33.1276 133.91 33.6646L133.161 31.7315L147.92 25.7172H150.271V25.7195ZM176.848 58.4153C173.854 56.9475 171.554 54.9002 169.949 52.269C168.345 49.6378 167.545 46.7291 167.545 43.543C167.545 38.6765 169.371 34.488 173.025 30.9797C176.681 27.4714 181.358 25.7172 187.062 25.7172C191.733 25.7172 195.778 26.8628 199.202 29.1539H209.578C211.111 29.1539 212.001 29.1987 212.251 29.2882C212.366 29.3254 212.472 29.3848 212.564 29.4631C212.655 29.5415 212.731 29.6371 212.785 29.7446C213 30.0668 213.107 30.6396 213.107 31.463C213.107 32.3938 213.018 33.0381 212.839 33.3961C212.704 33.5968 212.507 33.7477 212.278 33.8257C212.01 33.9331 211.111 33.9868 209.578 33.9868H203.213C205.211 36.5644 206.208 39.8579 206.208 43.8652C206.208 48.4474 204.463 52.3652 200.967 55.6229C197.472 58.8807 192.785 60.5095 186.903 60.5095C184.478 60.5095 182.002 60.1538 179.47 59.4378C177.901 60.7959 176.84 61.9885 176.287 63.0088C175.735 64.0268 175.458 64.8972 175.458 65.6131C175.458 66.2195 175.753 66.8102 176.341 67.383C176.931 67.9557 178.08 68.3674 179.792 68.6203C180.789 68.7612 183.285 68.8865 187.279 68.9962C194.622 69.1752 199.383 69.4235 201.557 69.7479C204.872 70.2111 207.52 71.4484 209.5 73.4509C211.478 75.4557 212.468 77.9236 212.468 80.8613C212.468 84.9066 210.577 88.6991 206.798 92.2432C201.238 97.4677 193.983 100.081 185.035 100.081C178.154 100.081 172.343 98.526 167.6 95.4092C164.928 93.6215 163.591 91.76 163.591 89.8268C163.591 88.9676 163.786 88.1084 164.179 87.2515C164.785 85.9269 166.034 84.0833 167.922 81.7205C168.173 81.3983 169.992 79.4652 173.378 75.9211C171.523 74.8135 170.213 73.8201 169.447 72.943C168.703 72.1291 168.293 71.0655 168.296 69.9627C168.296 68.7075 168.805 67.242 169.82 65.5594C170.832 63.8724 173.177 61.494 176.848 58.4153ZM186.154 28.297C183.515 28.297 181.305 29.3531 179.521 31.4652C177.74 33.5774 176.848 36.8172 176.848 41.1825C176.848 46.8387 178.062 51.2219 180.485 54.3364C182.34 56.6969 184.693 57.8783 187.545 57.8783C190.253 57.8783 192.481 56.858 194.227 54.8175C195.975 52.7791 196.848 49.5751 196.848 45.2099C196.848 39.52 195.617 35.063 193.159 31.8411C191.339 29.4761 189.004 28.297 186.154 28.297ZM176.312 76.3484C174.636 78.1719 173.373 79.8724 172.517 81.4476C171.659 83.0227 171.232 84.4726 171.232 85.7949C171.232 87.5133 172.267 89.0146 174.336 90.3056C177.901 92.5252 183.05 93.6349 189.791 93.6349C196.207 93.6349 200.938 92.4983 203.989 90.2273C207.037 87.9518 208.561 85.5287 208.561 82.9511C208.561 81.0896 207.652 79.765 205.833 78.9797C203.98 78.1921 200.308 77.7244 194.817 77.5835C186.796 77.3665 180.628 76.9548 176.312 76.3484ZM250.164 25.7195V42.469H248.398C247.046 37.2065 245.305 33.6288 243.184 31.7315C241.063 29.8341 238.364 28.8854 235.083 28.8854C232.589 28.8854 230.573 29.5477 229.04 30.8723C227.506 32.1969 226.742 33.6646 226.742 35.2734C226.742 37.2781 227.312 38.9965 228.454 40.4284C229.558 41.8962 231.804 43.4535 235.192 45.098L242.999 48.9106C250.235 52.4547 253.854 57.1243 253.854 62.9237C253.854 67.3964 252.171 71.0032 248.8 73.7418C245.43 76.4804 241.662 77.8497 237.49 77.8497C234.495 77.8497 231.071 77.3127 227.22 76.2365C226.045 75.8808 225.082 75.7018 224.333 75.7018C223.515 75.7018 222.871 76.1672 222.409 77.098H220.645V59.5407H222.409C223.405 64.5504 225.314 68.3272 228.132 70.8689C230.948 73.4084 234.104 74.6793 237.597 74.6793C240.058 74.6793 242.062 73.9543 243.611 72.5045C245.162 71.0568 245.938 69.3094 245.938 67.2689C245.938 64.7987 245.073 62.7246 243.345 61.042C241.618 59.3595 238.167 57.2294 232.998 54.6541C227.828 52.0788 224.44 49.7519 222.836 47.6733C221.231 45.6327 220.431 43.0574 220.431 39.9429C220.431 35.8976 221.812 32.5146 224.574 29.7961C227.337 27.0753 230.912 25.715 235.297 25.715C237.222 25.715 239.557 26.1267 242.304 26.9501C244.121 27.487 245.332 27.7555 245.94 27.7555C246.51 27.7555 246.957 27.6302 247.279 27.3796C247.6 27.129 247.974 26.5742 248.4 25.715H250.164V25.7195ZM277.917 0.00223729V65.235C277.917 68.3115 278.142 70.3521 278.587 71.3522C279.032 72.3546 279.718 73.1175 280.645 73.6366C281.573 74.1557 283.3 74.4153 285.832 74.4153V76.3484H261.821V74.4153C264.067 74.4153 265.6 74.1826 266.42 73.7172C267.24 73.2518 267.882 72.4799 268.347 71.4081C268.809 70.3364 269.042 68.2779 269.042 65.235V20.5644C269.042 15.0177 268.917 11.6079 268.669 10.337C268.418 9.06837 268.016 8.19801 267.464 7.73262C266.912 7.26723 266.208 7.03453 265.352 7.03453C264.427 7.03453 263.251 7.32093 261.823 7.89371L260.916 6.01426L275.514 0L277.917 0.00223729ZM303.908 0.00223729C305.406 0.00223729 306.679 0.530274 307.73 1.58635C308.782 2.64242 309.308 3.92224 309.308 5.42581C309.308 6.92937 308.782 8.21814 307.73 9.29212C306.679 10.3661 305.406 10.9031 303.908 10.9031C302.411 10.9031 301.126 10.3661 300.055 9.29212C298.985 8.21814 298.451 6.92937 298.451 5.42581C298.451 3.92224 298.976 2.64242 300.028 1.58635C301.081 0.530274 302.375 0.00223729 303.908 0.00223729ZM308.344 25.7195V65.235C308.344 68.3115 308.568 70.361 309.015 71.3813C309.46 72.4016 310.119 73.1623 310.993 73.6635C311.867 74.1647 313.46 74.4153 315.78 74.4153V76.3484H291.985V74.4153C294.372 74.4153 295.977 74.1826 296.797 73.7172C297.615 73.2518 298.267 72.4799 298.748 71.4081C299.231 70.3364 299.47 68.2779 299.47 65.235V46.2816C299.47 40.9475 299.309 37.4929 298.987 35.92C298.739 34.7744 298.346 33.9779 297.811 33.5304C297.277 33.0829 296.546 32.8591 295.621 32.8591C294.622 32.8591 293.411 33.1276 291.985 33.6646L291.236 31.7315L305.996 25.7172H308.344V25.7195ZM353.48 25.7195V42.469H351.717C350.362 37.2065 348.624 33.6288 346.503 31.7315C344.382 29.8341 341.68 28.8854 338.401 28.8854C335.905 28.8854 333.889 29.5477 332.358 30.8723C330.823 32.1969 330.059 33.6646 330.059 35.2734C330.059 37.2781 330.631 38.9965 331.77 40.4284C332.877 41.8962 335.123 43.4535 338.511 45.098L346.317 48.9106C353.554 52.4547 357.172 57.1243 357.172 62.9237C357.172 67.3964 355.487 71.0032 352.117 73.7418C348.749 76.4804 344.979 77.8497 340.806 77.8497C337.811 77.8497 334.39 77.3127 330.539 76.2365C329.364 75.8808 328.4 75.7018 327.652 75.7018C326.831 75.7018 326.19 76.1672 325.725 77.098H323.962V59.5407H325.725C326.724 64.5504 328.633 68.3272 331.449 70.8689C334.267 73.4084 337.42 74.6793 340.913 74.6793C343.374 74.6793 345.379 73.9543 346.93 72.5045C348.478 71.0568 349.254 69.3094 349.256 67.2689C349.254 64.7987 348.389 62.7246 346.661 61.042C344.934 59.3595 341.483 57.2294 336.314 54.6541C331.145 52.0788 327.759 49.7519 326.154 47.6733C324.547 45.6327 323.747 43.0574 323.747 39.9429C323.747 35.8976 325.128 32.5146 327.891 29.7961C330.653 27.0753 334.227 25.715 338.614 25.715C340.538 25.715 342.873 26.1267 345.618 26.9501C347.435 27.487 348.648 27.7555 349.256 27.7555C349.826 27.7555 350.271 27.6302 350.593 27.3796C350.914 27.129 351.29 26.5742 351.717 25.715H353.48V25.7195ZM378.614 11.0082V27.1693H390.058V30.9282H378.614V62.8186C378.614 66.0047 379.067 68.1504 379.977 69.2602C380.886 70.37 382.055 70.9248 383.479 70.9248C384.654 70.9248 385.796 70.5579 386.901 69.824C388.005 69.0901 388.861 68.0072 389.466 66.5775H391.554C390.304 70.0836 388.539 72.7237 386.259 74.4958C383.98 76.2679 381.626 77.1539 379.201 77.1539C377.561 77.1539 375.956 76.6997 374.39 75.7868C372.821 74.8739 371.661 73.5673 370.912 71.8668C370.163 70.1664 369.788 67.5441 369.788 63.9999V30.9282H362.035V29.1562C363.995 28.3686 366 27.0351 368.049 25.1556C370.099 23.2762 371.925 21.0477 373.531 18.4724C374.349 17.112 375.491 14.624 376.953 11.0105L378.614 11.0082Z" fill="var(--fill-0, #800080)"/>
</svg>
