<svg preserveAspectRatio="none" width="100%" height="100%" overflow="visible" style="display: block;" viewBox="0 0 17 21" fill="none" xmlns="http://www.w3.org/2000/svg">
<g id="Vector">
<path d="M8.25001 12C7.50833 12 6.7833 11.7801 6.16662 11.368C5.54994 10.956 5.06929 10.3703 4.78546 9.68506C4.50163 8.99984 4.42737 8.24584 4.57206 7.51841C4.71676 6.79098 5.07391 6.1228 5.59836 5.59835C6.1228 5.0739 6.79099 4.71675 7.51842 4.57205C8.24585 4.42736 8.99985 4.50162 9.68507 4.78545C10.3703 5.06928 10.956 5.54993 11.368 6.16661C11.7801 6.7833 12 7.50832 12 8.25C11.9989 9.24421 11.6034 10.1974 10.9004 10.9004C10.1974 11.6034 9.24422 11.9989 8.25001 12ZM8.25001 6C7.805 6 7.36999 6.13196 6.99997 6.37919C6.62996 6.62643 6.34158 6.97783 6.17128 7.38896C6.00098 7.8001 5.95642 8.2525 6.04324 8.68895C6.13006 9.12541 6.34435 9.52632 6.65902 9.84099C6.97369 10.1557 7.3746 10.37 7.81105 10.4568C8.24751 10.5436 8.69991 10.499 9.11105 10.3287C9.52218 10.1584 9.87358 9.87004 10.1208 9.50003C10.368 9.13002 10.5 8.69501 10.5 8.25C10.4994 7.65346 10.2621 7.08155 9.84027 6.65973C9.41846 6.23792 8.84654 6.00066 8.25001 6Z" fill="#161616"/>
<path d="M8.25001 21L1.92338 13.5385C1.88746 13.4956 1.66223 13.1999 1.66223 13.1999C0.581409 11.7763 -0.00252499 10.0374 8.20738e-06 8.25C8.20738e-06 6.06196 0.869202 3.96354 2.41638 2.41637C3.96355 0.869194 6.06197 0 8.25001 0C10.438 0 12.5365 0.869194 14.0836 2.41637C15.6308 3.96354 16.5 6.06196 16.5 8.25C16.5027 10.0367 15.9192 11.7749 14.8389 13.198L14.8378 13.1999C14.8378 13.1999 14.6128 13.4956 14.5793 13.5354L8.25001 21ZM2.85938 12.2963C2.85938 12.2963 3.03443 12.5274 3.07433 12.577L8.25001 18.6809L13.4325 12.5684C13.4654 12.527 13.6416 12.2942 13.6416 12.2942C14.5246 11.131 15.0017 9.71034 15 8.25C15 6.45979 14.2888 4.7429 13.023 3.47703C11.7571 2.21116 10.0402 1.5 8.25001 1.5C6.4598 1.5 4.74291 2.21116 3.47704 3.47703C2.21117 4.7429 1.50001 6.45979 1.50001 8.25C1.49835 9.71113 1.97587 11.1325 2.85938 12.2963Z" fill="#161616"/>
</g>
</svg>
