<svg preserveAspectRatio="none" width="100%" height="100%" overflow="visible" style="display: block;" viewBox="0 0 14 14" fill="none" xmlns="http://www.w3.org/2000/svg">
<g id="Vector">
<path d="M2.85058 1.35058C2.27708 1.79067 1.77164 2.31296 1.35058 2.90058L2.15058 3.50058C2.51781 2.9913 2.95551 2.53676 3.45058 2.15058L2.85058 1.35058Z" fill="#161616"/>
<path d="M1.30058 5.15058L0.350582 4.85058C0.109063 5.54126 -0.00939926 6.26896 0.000582048 7.00058H1.00058C0.998553 6.37164 1.0999 5.74665 1.30058 5.15058Z" fill="#161616"/>
<path d="M0.350582 9.20058C0.582463 9.8978 0.919702 10.5554 1.35058 11.1506L2.15058 10.5506C1.78912 10.0445 1.50282 9.48871 1.30058 8.90058L0.350582 9.20058Z" fill="#161616"/>
<path d="M2.90058 12.6506C3.49575 13.0815 4.15336 13.4187 4.85058 13.6506L5.15058 12.7006C4.56245 12.4983 4.00669 12.212 3.50058 11.8506L2.90058 12.6506Z" fill="#161616"/>
<path d="M4.85058 0.350582L5.15058 1.30058C5.74665 1.0999 6.37164 0.998553 7.00058 1.00058V0.000582048C6.26896 -0.00939926 5.54126 0.109063 4.85058 0.350582Z" fill="#161616"/>
<path d="M11.1006 12.6506C11.6895 12.2116 12.2116 11.6895 12.6506 11.1006L11.8506 10.5006C11.4787 11.0225 11.0225 11.4787 10.5006 11.8506L11.1006 12.6506Z" fill="#161616"/>
<path d="M12.7006 8.85058L13.6506 9.15058C13.8681 8.45401 13.9859 7.73017 14.0006 7.00058H13.0006C13.0026 7.62952 12.9013 8.25452 12.7006 8.85058Z" fill="#161616"/>
<path d="M13.6006 4.80058C13.3687 4.10336 13.0315 3.44575 12.6006 2.85058L11.8006 3.45058C12.162 3.95669 12.4483 4.51245 12.6506 5.10058L13.6006 4.80058Z" fill="#161616"/>
<path d="M11.0506 1.30058C10.4554 0.869702 9.7978 0.532463 9.10058 0.300582L8.80058 1.25058C9.38871 1.45282 9.94447 1.73912 10.4506 2.10058L11.0506 1.30058Z" fill="#161616"/>
<path d="M9.15058 13.6506L8.85058 12.7006C8.25452 12.9013 7.62952 13.0026 7.00058 13.0006V14.0006C7.72728 13.9573 8.44767 13.84 9.15058 13.6506Z" fill="#161616"/>
</g>
</svg>
