<svg width="118" height="30" viewBox="0 0 118 30" fill="none" xmlns="http://www.w3.org/2000/svg">
<g clip-path="url(#clip0_177_18059)">
<path d="M12.4491 17.2986C12.0522 19.2425 11.2738 20.7373 10.1147 21.7844C8.95554 22.8315 7.67329 23.3551 6.26725 23.3551C4.59346 23.3551 3.1336 22.6517 1.88835 21.2447C0.643773 19.8378 0.0214844 17.9376 0.0214844 15.5426C0.0214844 13.2235 0.711047 11.3393 2.09017 9.88948C3.4693 8.43961 5.12426 7.71535 7.05638 7.71535C8.5048 7.71535 9.69623 8.09929 10.63 8.86719C11.5638 9.63508 12.0307 10.4318 12.0307 11.2588C12.0307 11.6669 11.8995 11.9972 11.6364 12.2495C11.3727 12.5019 11.0054 12.6274 10.5331 12.6274C9.90007 12.6274 9.4231 12.4234 9.10085 12.0153C8.91854 11.7897 8.79744 11.3602 8.73824 10.7272C8.67904 10.0935 8.46242 9.61024 8.08635 9.27731C7.71029 8.95512 7.19026 8.79402 6.52491 8.79402C5.45188 8.79402 4.58808 9.19139 3.93282 9.98613C3.06364 11.0386 2.62904 12.4288 2.62904 14.1579C2.62904 15.9192 3.06095 17.4731 3.92475 18.8209C4.78856 20.1688 5.95577 20.842 7.42572 20.842C8.47722 20.842 9.42242 20.4829 10.2593 19.7633C10.8493 19.27 11.4232 18.3732 11.9815 17.0737L12.4491 17.2986ZM18.8563 7.71535V11.0333C20.0901 8.82154 21.3569 7.71535 22.6546 7.71535C23.2453 7.71535 23.7337 7.89524 24.1199 8.25502C24.506 8.6148 24.6991 9.03097 24.6991 9.50352C24.6991 9.92237 24.5599 10.2768 24.2807 10.5661C24.0015 10.8561 23.6691 11.001 23.283 11.001C22.9069 11.001 22.4858 10.8158 22.0196 10.4453C21.5527 10.0747 21.2062 9.88948 20.9809 9.88948C20.7878 9.88948 20.5786 9.99687 20.3532 10.2117C19.8702 10.652 19.371 11.3769 18.8557 12.3858V19.4572C18.8557 20.2728 18.9572 20.8903 19.1611 21.3092C19.301 21.5998 19.5472 21.8408 19.9024 22.0341C20.2563 22.2274 20.7656 22.3241 21.4309 22.3241V22.904H13.8814V22.3241C14.6322 22.3241 15.1905 22.206 15.5552 21.9697C15.8229 21.7978 16.0113 21.5247 16.1183 21.1488C16.1721 20.9662 16.199 20.4446 16.199 19.5861V13.8679C16.199 12.1495 16.164 11.1272 16.0947 10.7997C16.0254 10.4721 15.8963 10.2331 15.7086 10.0828C15.5209 9.93243 15.2874 9.85726 15.0082 9.85726C14.6752 9.85726 14.2998 9.9378 13.8814 10.0989L13.7206 9.51895L18.1795 7.71468H18.8563V7.71535ZM33.907 20.7776C32.394 21.9482 31.4447 22.6248 31.0586 22.8067C30.4787 23.0752 29.8618 23.2094 29.2072 23.2094C28.1873 23.2094 27.3477 22.8604 26.6878 22.163C26.0285 21.4649 25.6975 20.5467 25.6975 19.4082C25.6975 18.6887 25.8583 18.0658 26.1805 17.5402C26.6205 16.8099 27.3854 16.1226 28.4746 15.4782C29.5637 14.8345 31.3748 14.0505 33.907 13.1268V12.5469C33.907 11.0755 33.6735 10.0667 33.2073 9.51895C32.7404 8.97123 32.0616 8.69736 31.1709 8.69736C30.4948 8.69736 29.958 8.87927 29.561 9.24442C29.1534 9.60957 28.9495 10.0284 28.9495 10.501L28.9818 11.4353C28.9818 11.9294 28.8553 12.3106 28.6037 12.5791C28.3521 12.8476 28.0218 12.9819 27.6135 12.9819C27.2165 12.9819 26.8923 12.8422 26.64 12.563C26.3877 12.2838 26.2619 11.9025 26.2619 11.4192C26.2619 10.4956 26.7342 9.64716 27.678 8.8739C28.6226 8.10064 29.9479 7.71401 31.654 7.71401C32.9631 7.71401 34.0361 7.93417 34.8737 8.3745C35.5061 8.70743 35.9737 9.22764 36.2737 9.93713C36.4668 10.3989 36.5637 11.344 36.5637 12.7718V17.7805C36.5637 19.1874 36.5906 20.0486 36.6444 20.3661C36.6982 20.6829 36.7863 20.8944 36.9101 21.0018C37.0339 21.1092 37.1759 21.1629 37.3366 21.1629C37.5089 21.1629 37.6589 21.1253 37.788 21.0501C38.0134 20.9105 38.4473 20.5185 39.0918 19.8741V20.7762C37.8903 22.3872 36.7419 23.1927 35.6474 23.1927C35.1213 23.1927 34.7028 23.0108 34.392 22.6449C34.0792 22.2811 33.9177 21.6582 33.907 20.7776ZM33.907 19.7304V14.1095C32.287 14.7532 31.2402 15.2103 30.7686 15.4782C29.9203 15.9507 29.3142 16.4441 28.9495 16.9603C28.5921 17.452 28.4006 18.0443 28.4026 18.6518C28.4026 19.4244 28.6333 20.0661 29.0942 20.5762C29.5563 21.0863 30.0871 21.3414 30.6879 21.3414C31.5033 21.3414 32.5763 20.8044 33.907 19.7304ZM43.9201 0.000182904C44.3709 0.000182904 44.7543 0.158594 45.0712 0.475417C45.3881 0.792239 45.5461 1.17619 45.5461 1.62725C45.5461 2.07832 45.3881 2.46495 45.0712 2.78715C44.7543 3.10934 44.3709 3.27044 43.9201 3.27044C43.4694 3.27044 43.0832 3.10934 42.761 2.78715C42.4387 2.46495 42.278 2.07832 42.278 1.62725C42.278 1.17619 42.436 0.792239 42.7522 0.475417C43.0691 0.158594 43.4579 0.000182904 43.9201 0.000182904ZM45.2562 7.71535V19.57C45.2562 20.493 45.3235 21.1078 45.4573 21.4139C45.5912 21.72 45.7897 21.9482 46.0527 22.0986C46.3164 22.2489 46.7961 22.3241 47.4937 22.3241V22.904H40.331V22.3241C41.0495 22.3241 41.5326 22.2543 41.7794 22.1147C42.0263 21.975 42.2221 21.7435 42.3668 21.422C42.5121 21.1004 42.5841 20.4829 42.5841 19.57V13.884C42.5841 12.2838 42.5363 11.2474 42.4394 10.7755C42.3641 10.4318 42.2463 10.1929 42.0855 10.0586C41.9248 9.92438 41.7048 9.85726 41.4256 9.85726C41.1255 9.85726 40.7602 9.9378 40.331 10.0989L40.1057 9.51895L44.5485 7.71468H45.2562V7.71535ZM53.2565 17.5241C52.355 17.0838 51.6627 16.4696 51.1797 15.6802C50.6967 14.8908 50.4558 14.0182 50.4558 13.0624C50.4558 11.6025 51.0055 10.3459 52.1054 9.29342C53.206 8.24093 54.6141 7.71468 56.3309 7.71468C57.737 7.71468 58.9546 8.05835 59.9853 8.74569H63.1088C63.5703 8.74569 63.8381 8.75912 63.9134 8.78597C63.9479 8.79712 63.9799 8.81496 64.0075 8.83845C64.0351 8.86195 64.0578 8.89065 64.0742 8.9229C64.1388 9.01956 64.1711 9.19139 64.1711 9.43841C64.1711 9.71764 64.1442 9.91096 64.0904 10.0184C64.0497 10.0786 63.9904 10.1238 63.9215 10.1472C63.8408 10.1794 63.5703 10.1956 63.1088 10.1956H61.1928C61.7943 10.9688 62.0943 11.9569 62.0943 13.1591C62.0943 14.5337 61.5689 15.7091 60.5167 16.6864C59.4646 17.6637 58.0538 18.1524 56.2832 18.1524C55.5532 18.1524 54.8078 18.0456 54.0456 17.8308C53.5733 18.2383 53.2538 18.5961 53.0876 18.9021C52.9215 19.2076 52.838 19.4687 52.838 19.6835C52.838 19.8654 52.9268 20.0426 53.1038 20.2144C53.2814 20.3862 53.6272 20.5097 54.1425 20.5856C54.4425 20.6279 55.194 20.6655 56.3962 20.6984C58.6068 20.7521 60.0398 20.8266 60.6943 20.9239C61.692 21.0628 62.4892 21.434 63.0853 22.0348C63.6807 22.6362 63.9787 23.3766 63.9787 24.2579C63.9787 25.4715 63.4095 26.6092 62.2719 27.6725C60.5981 29.2398 58.4144 30.0238 55.7207 30.0238C53.6494 30.0238 51.9002 29.5573 50.4727 28.6223C49.6681 28.086 49.2658 27.5275 49.2658 26.9476C49.2658 26.6898 49.3243 26.432 49.4427 26.175C49.625 25.7776 50.0011 25.2245 50.5695 24.5157C50.6449 24.419 51.1925 23.8391 52.2117 22.7758C51.6533 22.4436 51.2591 22.1455 51.0283 21.8824C50.8046 21.6383 50.681 21.3192 50.6819 20.9883C50.6819 20.6118 50.8353 20.1721 51.1407 19.6673C51.4454 19.1612 52.1512 18.4477 53.2565 17.5241ZM56.0578 8.48861C55.2633 8.48861 54.5979 8.80543 54.0611 9.43908C53.5249 10.0727 53.2565 11.0447 53.2565 12.3542C53.2565 14.0511 53.6218 15.3661 54.351 16.3004C54.9094 17.0086 55.6178 17.363 56.4762 17.363C57.2916 17.363 57.9623 17.0569 58.4877 16.4447C59.0138 15.8333 59.2769 14.872 59.2769 13.5625C59.2769 11.8555 58.9062 10.5184 58.1662 9.55184C57.6186 8.84235 56.9155 8.48861 56.0578 8.48861ZM53.095 22.904C52.5905 23.4511 52.2104 23.9612 51.9527 24.4338C51.6944 24.9063 51.5659 25.3413 51.5659 25.738C51.5659 26.2535 51.8774 26.7039 52.5003 27.0912C53.5733 27.7571 55.1233 28.09 57.1523 28.09C59.0838 28.09 60.508 27.749 61.4263 27.0677C62.3439 26.3851 62.8027 25.6581 62.8027 24.8848C62.8027 24.3264 62.5289 23.929 61.9813 23.6934C61.4236 23.4571 60.3183 23.3168 58.6654 23.2746C56.2509 23.2094 54.3941 23.0859 53.095 22.904ZM75.3259 7.71535V12.7402H74.7944C74.3874 11.1615 73.8633 10.0882 73.2249 9.51895C72.5865 8.94975 71.7738 8.66515 70.7862 8.66515C70.0354 8.66515 69.4286 8.86383 68.9671 9.2612C68.5056 9.65857 68.2755 10.0989 68.2755 10.5815C68.2755 11.1829 68.4471 11.6985 68.7908 12.128C69.1232 12.5684 69.7993 13.0356 70.8192 13.5289L73.1691 14.6727C75.3474 15.7359 76.4366 17.1368 76.4366 18.8766C76.4366 20.2184 75.93 21.3005 74.9155 22.122C73.901 22.9436 72.7668 23.3544 71.5107 23.3544C70.6093 23.3544 69.5786 23.1933 68.4195 22.8705C68.0656 22.7637 67.7757 22.71 67.5503 22.71C67.3041 22.71 67.1103 22.8497 66.9711 23.1289H66.4403V17.8617H66.9711C67.2711 19.3646 67.8456 20.4977 68.694 21.2602C69.5416 22.022 70.4915 22.4033 71.543 22.4033C72.2837 22.4033 72.8872 22.1858 73.3534 21.7509C73.8203 21.3166 74.0537 20.7923 74.0537 20.1802C74.0537 19.4391 73.7934 18.8169 73.2733 18.3121C72.7533 17.8074 71.7146 17.1683 70.1585 16.3957C68.6025 15.6232 67.5826 14.9251 67.0995 14.3015C66.6165 13.6893 66.3757 12.9167 66.3757 11.9824C66.3757 10.7688 66.7914 9.75389 67.6229 8.93834C68.4545 8.12212 69.5309 7.71401 70.8508 7.71401C71.43 7.71401 72.133 7.83751 72.9598 8.08453C73.5068 8.24562 73.8714 8.32617 74.0544 8.32617C74.2259 8.32617 74.3605 8.28858 74.4574 8.2134C74.5542 8.13823 74.6666 7.97176 74.7951 7.71401H75.3259V7.71535ZM83.68 0.000182904V19.57C83.68 20.493 83.748 21.1051 83.8819 21.4052C84.0157 21.7059 84.2223 21.9348 84.5014 22.0905C84.7806 22.2462 85.3007 22.3241 86.0629 22.3241V22.904H78.8349V22.3241C79.511 22.3241 79.9725 22.2543 80.2194 22.1147C80.4663 21.975 80.6594 21.7435 80.7993 21.422C80.9386 21.1004 81.0086 20.4829 81.0086 19.57V6.16883C81.0086 4.50484 80.9709 3.48187 80.8962 3.10061C80.8209 2.72002 80.6998 2.45891 80.5336 2.3193C80.3674 2.17968 80.1555 2.10987 79.8979 2.10987C79.6193 2.10987 79.2655 2.19579 78.8356 2.36763L78.5625 1.80379L82.9568 -0.000488281L83.68 0.000182904ZM91.5041 0.000182904C91.9548 0.000182904 92.3383 0.158594 92.6544 0.475417C92.9713 0.792239 93.1294 1.17619 93.1294 1.62725C93.1294 2.07832 92.9713 2.46495 92.6544 2.78715C92.3383 3.10934 91.9548 3.27044 91.5041 3.27044C91.0533 3.27044 90.6665 3.10934 90.3442 2.78715C90.022 2.46495 89.8612 2.07832 89.8612 1.62725C89.8612 1.17619 90.0193 0.792239 90.3362 0.475417C90.653 0.158594 91.0426 0.000182904 91.5041 0.000182904ZM92.8395 7.71535V19.57C92.8395 20.493 92.9067 21.1078 93.0413 21.4139C93.1752 21.72 93.3736 21.9482 93.6367 22.0986C93.8997 22.2489 94.3794 22.3241 95.0777 22.3241V22.904H87.915V22.3241C88.6335 22.3241 89.1165 22.2543 89.3634 22.1147C89.6096 21.975 89.806 21.7435 89.9507 21.422C90.096 21.1004 90.168 20.4829 90.168 19.57V13.884C90.168 12.2838 90.1195 11.2474 90.0227 10.7755C89.948 10.4318 89.8296 10.1929 89.6688 10.0586C89.508 9.92438 89.288 9.85726 89.0095 9.85726C88.7088 9.85726 88.3442 9.9378 87.915 10.0989L87.6896 9.51895L92.1324 7.71468H92.8395V7.71535ZM106.426 7.71535V12.7402H105.895C105.488 11.1615 104.964 10.0882 104.326 9.51895C103.687 8.94975 102.874 8.66515 101.887 8.66515C101.136 8.66515 100.529 8.86383 100.068 9.2612C99.6059 9.65857 99.3758 10.0989 99.3758 10.5815C99.3758 11.1829 99.5481 11.6985 99.8912 12.128C100.224 12.5684 100.9 13.0356 101.92 13.5289L104.27 14.6727C106.448 15.7359 107.538 17.1368 107.538 18.8766C107.538 20.2184 107.03 21.3005 106.016 22.122C105.002 22.9436 103.867 23.3544 102.611 23.3544C101.71 23.3544 100.68 23.1933 99.5205 22.8705C99.1666 22.7637 98.8767 22.71 98.6513 22.71C98.4044 22.71 98.2113 22.8497 98.0714 23.1289H97.5406V17.8617H98.0714C98.3721 19.3646 98.9466 20.4977 99.7943 21.2602C100.643 22.022 101.592 22.4033 102.643 22.4033C103.384 22.4033 103.988 22.1858 104.454 21.7509C104.921 21.3166 105.154 20.7923 105.155 20.1802C105.154 19.4391 104.894 18.8169 104.374 18.3121C103.854 17.8074 102.815 17.1683 101.259 16.3957C99.7028 15.6232 98.6836 14.9251 98.2006 14.3015C97.7169 13.6893 97.476 12.9167 97.476 11.9824C97.476 10.7688 97.8918 9.75389 98.7233 8.93834C99.5548 8.12212 100.631 7.71401 101.951 7.71401C102.53 7.71401 103.233 7.83751 104.059 8.08453C104.606 8.24562 104.972 8.32617 105.155 8.32617C105.326 8.32617 105.46 8.28858 105.557 8.2134C105.654 8.13823 105.767 7.97176 105.895 7.71401H106.426V7.71535ZM113.992 3.30198V8.15031H117.437V9.27798H113.992V18.8451C113.992 19.8009 114.128 20.4446 114.402 20.7776C114.676 21.1105 115.028 21.277 115.456 21.277C115.81 21.277 116.154 21.1669 116.486 20.9467C116.819 20.7266 117.076 20.4017 117.259 19.9728H117.887C117.511 21.0246 116.98 21.8166 116.293 22.3483C115.607 22.8799 114.899 23.1457 114.169 23.1457C113.675 23.1457 113.192 23.0094 112.72 22.7356C112.248 22.4617 111.899 22.0697 111.674 21.5596C111.448 21.0494 111.335 20.2627 111.335 19.1995V9.27798H109.001V8.74636C109.591 8.51009 110.195 8.11003 110.812 7.5462C111.429 6.98236 111.978 6.31381 112.462 5.54122C112.708 5.13311 113.052 4.3867 113.492 3.30265L113.992 3.30198Z" fill="white"/>
</g>
<defs>
<clipPath id="clip0_177_18059">
<rect width="118" height="30" fill="white"/>
</clipPath>
</defs>
</svg>
