<svg width="118" height="30" viewBox="0 0 118 30" fill="none" xmlns="http://www.w3.org/2000/svg">
<g clip-path="url(#clip0_144_3688)">
<path d="M12.449 17.2983C12.0521 19.2422 11.2737 20.737 10.1146 21.7842C8.95542 22.8313 7.67316 23.3549 6.26713 23.3549C4.59334 23.3549 3.13348 22.6514 1.88823 21.2445C0.643651 19.8376 0.0213623 17.9373 0.0213623 15.5424C0.0213623 13.2233 0.710925 11.3391 2.09005 9.88923C3.46918 8.43937 5.12413 7.7151 7.05626 7.7151C8.50468 7.7151 9.69611 8.09905 10.6299 8.86694C11.5636 9.63483 12.0305 10.4316 12.0305 11.2586C12.0305 11.6667 11.8993 11.9969 11.6363 12.2493C11.3726 12.5017 11.0053 12.6272 10.533 12.6272C9.89995 12.6272 9.42298 12.4231 9.10073 12.015C8.91842 11.7895 8.79732 11.3599 8.73812 10.7269C8.67892 10.0933 8.46229 9.61 8.08623 9.27707C7.71017 8.95487 7.19013 8.79378 6.52479 8.79378C5.45176 8.79378 4.58796 9.19115 3.9327 9.98589C3.06352 11.0384 2.62892 12.4285 2.62892 14.1576C2.62892 15.9189 3.06082 17.4728 3.92463 18.8207C4.78843 20.1685 5.95565 20.8418 7.42559 20.8418C8.47709 20.8418 9.4223 20.4826 10.2592 19.7631C10.8492 19.2697 11.423 18.373 11.9814 17.0735L12.449 17.2983ZM18.8562 7.7151V11.033C20.09 8.8213 21.3568 7.7151 22.6545 7.7151C23.2452 7.7151 23.7336 7.895 24.1198 8.25478C24.5059 8.61456 24.699 9.03072 24.699 9.50327C24.699 9.92212 24.5597 10.2765 24.2805 10.5658C24.0014 10.8558 23.669 11.0008 23.2829 11.0008C22.9068 11.0008 22.4857 10.8155 22.0195 10.445C21.5526 10.0745 21.2061 9.88923 20.9807 9.88923C20.7877 9.88923 20.5784 9.99663 20.3531 10.2114C19.87 10.6518 19.3709 11.3767 18.8555 12.3856V19.457C18.8555 20.2726 18.9571 20.8901 19.161 21.3089C19.3009 21.5996 19.5471 21.8406 19.9023 22.0339C20.2562 22.2272 20.7655 22.3238 21.4308 22.3238V22.9038H13.8813V22.3238C14.632 22.3238 15.1904 22.2057 15.555 21.9694C15.8228 21.7976 16.0112 21.5244 16.1181 21.1485C16.172 20.9659 16.1989 20.4444 16.1989 19.5859V13.8676C16.1989 12.1493 16.1639 11.127 16.0946 10.7994C16.0253 10.4719 15.8961 10.2329 15.7084 10.0825C15.5207 9.93219 15.2873 9.85701 15.0081 9.85701C14.6751 9.85701 14.2997 9.93756 13.8813 10.0987L13.7205 9.51871L18.1794 7.71443H18.8562V7.7151ZM33.9069 20.7773C32.3939 21.948 31.4446 22.6246 31.0585 22.8065C30.4786 23.075 29.8616 23.2092 29.2071 23.2092C28.1872 23.2092 27.3476 22.8602 26.6876 22.1627C26.0283 21.4647 25.6974 20.5464 25.6974 19.408C25.6974 18.6884 25.8581 18.0655 26.1804 17.54C26.6204 16.8097 27.3853 16.1223 28.4744 15.4779C29.5636 14.8342 31.3746 14.0502 33.9069 13.1266V12.5466C33.9069 11.0753 33.6734 10.0664 33.2072 9.51871C32.7403 8.97098 32.0615 8.69712 31.1708 8.69712C30.4947 8.69712 29.9578 8.87903 29.5609 9.24418C29.1532 9.60933 28.9494 10.0282 28.9494 10.5007L28.9817 11.4351C28.9817 11.9291 28.8552 12.3104 28.6036 12.5789C28.352 12.8474 28.0217 12.9816 27.6133 12.9816C27.2164 12.9816 26.8921 12.842 26.6399 12.5628C26.3876 12.2835 26.2618 11.9023 26.2618 11.419C26.2618 10.4954 26.7341 9.64692 27.6779 8.87366C28.6224 8.10039 29.9478 7.71376 31.6538 7.71376C32.963 7.71376 34.036 7.93393 34.8736 8.37426C35.506 8.70719 35.9735 9.2274 36.2736 9.93689C36.4667 10.3987 36.5635 11.3438 36.5635 12.7715V17.7803C36.5635 19.1872 36.5904 20.0484 36.6443 20.3659C36.6981 20.6827 36.7862 20.8941 36.91 21.0015C37.0338 21.1089 37.1757 21.1626 37.3365 21.1626C37.5087 21.1626 37.6588 21.125 37.7879 21.0498C38.0133 20.9102 38.4472 20.5182 39.0917 19.8738V20.776C37.8902 22.3869 36.7418 23.1924 35.6473 23.1924C35.1212 23.1924 34.7027 23.0105 34.3919 22.6447C34.0791 22.2809 33.9176 21.658 33.9069 20.7773ZM33.9069 19.7302V14.1093C32.2869 14.753 31.2401 15.2101 30.7685 15.4779C29.9202 15.9505 29.314 16.4438 28.9494 16.96C28.592 17.4518 28.4005 18.0441 28.4025 18.6515C28.4025 19.4241 28.6332 20.0658 29.094 20.576C29.5562 21.0861 30.087 21.3412 30.6878 21.3412C31.5031 21.3412 32.5762 20.8042 33.9069 19.7302ZM43.92 -6.12363e-05C44.3707 -6.12363e-05 44.7542 0.15835 45.0711 0.475172C45.3879 0.791995 45.546 1.17594 45.546 1.62701C45.546 2.07808 45.3879 2.46471 45.0711 2.7869C44.7542 3.1091 44.3707 3.27019 43.92 3.27019C43.4693 3.27019 43.0831 3.1091 42.7609 2.7869C42.4386 2.46471 42.2778 2.07808 42.2778 1.62701C42.2778 1.17594 42.4359 0.791995 42.7521 0.475172C43.069 0.15835 43.4578 -6.12363e-05 43.92 -6.12363e-05ZM45.2561 7.7151V19.5698C45.2561 20.4927 45.3233 21.1076 45.4572 21.4137C45.5911 21.7197 45.7896 21.948 46.0526 22.0983C46.3163 22.2487 46.796 22.3238 47.4936 22.3238V22.9038H40.3309V22.3238C41.0494 22.3238 41.5324 22.254 41.7793 22.1144C42.0262 21.9748 42.222 21.7432 42.3666 21.4217C42.5119 21.1002 42.5839 20.4827 42.5839 19.5698V13.8837C42.5839 12.2835 42.5362 11.2471 42.4393 10.7753C42.3639 10.4316 42.2462 10.1926 42.0854 10.0584C41.9246 9.92414 41.7047 9.85701 41.4255 9.85701C41.1254 9.85701 40.7601 9.93756 40.3309 10.0987L40.1055 9.51871L44.5483 7.71443H45.2561V7.7151ZM53.2564 17.5238C52.3549 17.0835 51.6626 16.4693 51.1796 15.68C50.6966 14.8906 50.4557 14.018 50.4557 13.0622C50.4557 11.6022 51.0053 10.3457 52.1053 9.29318C53.2059 8.24068 54.614 7.71443 56.3308 7.71443C57.7368 7.71443 58.9545 8.05811 59.9851 8.74545H63.1087C63.5702 8.74545 63.838 8.75887 63.9133 8.78572C63.9478 8.79688 63.9798 8.81471 64.0074 8.83821C64.035 8.86171 64.0576 8.8904 64.0741 8.92266C64.1387 9.01931 64.171 9.19115 64.171 9.43816C64.171 9.7174 64.1441 9.91071 64.0902 10.0181C64.0496 10.0783 63.9903 10.1236 63.9214 10.147C63.8406 10.1792 63.5702 10.1953 63.1087 10.1953H61.1927C61.7942 10.9686 62.0942 11.9566 62.0942 13.1588C62.0942 14.5335 61.5688 15.7088 60.5166 16.6861C59.4645 17.6635 58.0537 18.1521 56.283 18.1521C55.5531 18.1521 54.8077 18.0454 54.0455 17.8306C53.5732 18.238 53.2537 18.5958 53.0875 18.9019C52.9213 19.2073 52.8379 19.4684 52.8379 19.6832C52.8379 19.8651 52.9267 20.0423 53.1036 20.2142C53.2813 20.386 53.627 20.5095 54.1424 20.5853C54.4424 20.6276 55.1939 20.6652 56.3961 20.6981C58.6067 20.7518 60.0396 20.8263 60.6942 20.9236C61.6919 21.0626 62.4891 21.4338 63.0852 22.0345C63.6805 22.636 63.9786 23.3763 63.9786 24.2577C63.9786 25.4713 63.4094 26.609 62.2718 27.6722C60.598 29.2396 58.4143 30.0236 55.7206 30.0236C53.6492 30.0236 51.9001 29.5571 50.4725 28.622C49.6679 28.0857 49.2656 27.5273 49.2656 26.9473C49.2656 26.6896 49.3242 26.4318 49.4426 26.1747C49.6249 25.7773 50.0009 25.2242 50.5694 24.5154C50.6448 24.4188 51.1924 23.8388 52.2116 22.7756C51.6532 22.4433 51.259 22.1453 51.0282 21.8822C50.8045 21.638 50.6808 21.3189 50.6818 20.9881C50.6818 20.6115 50.8351 20.1719 51.1406 19.6671C51.4453 19.161 52.151 18.4475 53.2564 17.5238ZM56.0577 8.48837C55.2632 8.48837 54.5978 8.80519 54.061 9.43883C53.5248 10.0725 53.2564 11.0444 53.2564 12.354C53.2564 14.0509 53.6217 15.3658 54.3509 16.3002C54.9093 17.0083 55.6177 17.3628 56.4761 17.3628C57.2915 17.3628 57.9622 17.0567 58.4876 16.4445C59.0137 15.833 59.2768 14.8718 59.2768 13.5622C59.2768 11.8553 58.9061 10.5182 58.166 9.5516C57.6184 8.84211 56.9154 8.48837 56.0577 8.48837ZM53.0949 22.9038C52.5903 23.4508 52.2102 23.961 51.9526 24.4335C51.6942 24.9061 51.5657 25.341 51.5657 25.7377C51.5657 26.2533 51.8772 26.7036 52.5002 27.091C53.5732 27.7568 55.1232 28.0897 57.1522 28.0897C59.0837 28.0897 60.5079 27.7488 61.4262 27.0675C62.3438 26.3848 62.8026 25.6579 62.8026 24.8846C62.8026 24.3261 62.5288 23.9288 61.9812 23.6932C61.4235 23.4569 60.3182 23.3166 58.6652 23.2743C56.2507 23.2092 54.394 23.0857 53.0949 22.9038ZM75.3258 7.7151V12.74H74.7943C74.3873 11.1612 73.8632 10.0879 73.2248 9.51871C72.5863 8.9495 71.7737 8.6649 70.7861 8.6649C70.0353 8.6649 69.4285 8.86359 68.967 9.26096C68.5055 9.65833 68.2754 10.0987 68.2754 10.5813C68.2754 11.1827 68.4469 11.6982 68.7907 12.1278C69.123 12.5681 69.7992 13.0353 70.819 13.5287L73.1689 14.6724C75.3473 15.7357 76.4365 17.1365 76.4365 18.8764C76.4365 20.2182 75.9299 21.3002 74.9154 22.1218C73.9009 22.9434 72.7666 23.3542 71.5106 23.3542C70.6091 23.3542 69.5785 23.1931 68.4194 22.8702C68.0655 22.7635 67.7755 22.7098 67.5502 22.7098C67.304 22.7098 67.1102 22.8494 66.9709 23.1287H66.4401V17.8615H66.9709C67.271 19.3644 67.8455 20.4974 68.6938 21.2599C69.5415 22.0218 70.4914 22.4031 71.5429 22.4031C72.2836 22.4031 72.8871 22.1856 73.3533 21.7506C73.8202 21.3163 74.0536 20.7921 74.0536 20.1799C74.0536 19.4389 73.7932 18.8166 73.2732 18.3119C72.7532 17.8071 71.7145 17.1681 70.1584 16.3955C68.6023 15.6229 67.5825 14.9248 67.0994 14.3013C66.6164 13.6891 66.3756 12.9165 66.3756 11.9821C66.3756 10.7685 66.7913 9.75364 67.6228 8.93809C68.4543 8.12187 69.5307 7.71376 70.8507 7.71376C71.4299 7.71376 72.1329 7.83727 72.9597 8.08428C73.5067 8.24538 73.8713 8.32593 74.0543 8.32593C74.2258 8.32593 74.3604 8.28834 74.4572 8.21316C74.5541 8.13798 74.6665 7.97152 74.795 7.71376H75.3258V7.7151ZM83.6799 -6.12363e-05V19.5698C83.6799 20.4927 83.7479 21.1049 83.8817 21.4049C84.0156 21.7056 84.2221 21.9345 84.5013 22.0903C84.7805 22.246 85.3005 22.3238 86.0628 22.3238V22.9038H78.8348V22.3238C79.5109 22.3238 79.9724 22.254 80.2193 22.1144C80.4662 21.9748 80.6593 21.7432 80.7992 21.4217C80.9385 21.1002 81.0084 20.4827 81.0084 19.5698V6.16858C81.0084 4.50459 80.9708 3.48163 80.8961 3.10037C80.8207 2.71978 80.6996 2.45867 80.5335 2.31905C80.3673 2.17944 80.1554 2.10963 79.8977 2.10963C79.6192 2.10963 79.2654 2.19555 78.8355 2.36738L78.5623 1.80354L82.9567 -0.000732422L83.6799 -6.12363e-05ZM91.5039 -6.12363e-05C91.9547 -6.12363e-05 92.3381 0.15835 92.6543 0.475172C92.9712 0.791995 93.1293 1.17594 93.1293 1.62701C93.1293 2.07808 92.9712 2.46471 92.6543 2.7869C92.3381 3.1091 91.9547 3.27019 91.5039 3.27019C91.0532 3.27019 90.6664 3.1091 90.3441 2.7869C90.0219 2.46471 89.8611 2.07808 89.8611 1.62701C89.8611 1.17594 90.0192 0.791995 90.336 0.475172C90.6529 0.15835 91.0424 -6.12363e-05 91.5039 -6.12363e-05ZM92.8393 7.7151V19.5698C92.8393 20.4927 92.9066 21.1076 93.0412 21.4137C93.175 21.7197 93.3735 21.948 93.6365 22.0983C93.8996 22.2487 94.3792 22.3238 95.0776 22.3238V22.9038H87.9148V22.3238C88.6333 22.3238 89.1164 22.254 89.3633 22.1144C89.6095 21.9748 89.8059 21.7432 89.9506 21.4217C90.0959 21.1002 90.1679 20.4827 90.1679 19.5698V13.8837C90.1679 12.2835 90.1194 11.2471 90.0225 10.7753C89.9479 10.4316 89.8295 10.1926 89.6687 10.0584C89.5079 9.92414 89.2879 9.85701 89.0094 9.85701C88.7087 9.85701 88.3441 9.93756 87.9148 10.0987L87.6895 9.51871L92.1323 7.71443H92.8393V7.7151ZM106.426 7.7151V12.74H105.895C105.488 11.1612 104.964 10.0879 104.326 9.51871C103.687 8.9495 102.874 8.6649 101.887 8.6649C101.136 8.6649 100.529 8.86359 100.068 9.26096C99.6058 9.65833 99.3757 10.0987 99.3757 10.5813C99.3757 11.1827 99.5479 11.6982 99.891 12.1278C100.224 12.5681 100.9 13.0353 101.92 13.5287L104.27 14.6724C106.448 15.7357 107.537 17.1365 107.537 18.8764C107.537 20.2182 107.03 21.3002 106.016 22.1218C105.002 22.9434 103.867 23.3542 102.611 23.3542C101.709 23.3542 100.68 23.1931 99.5204 22.8702C99.1665 22.7635 98.8765 22.7098 98.6512 22.7098C98.4043 22.7098 98.2112 22.8494 98.0713 23.1287H97.5405V17.8615H98.0713C98.372 19.3644 98.9465 20.4974 99.7942 21.2599C100.643 22.0218 101.592 22.4031 102.643 22.4031C103.384 22.4031 103.987 22.1856 104.454 21.7506C104.92 21.3163 105.154 20.7921 105.155 20.1799C105.154 19.4389 104.894 18.8166 104.374 18.3119C103.854 17.8071 102.815 17.1681 101.259 16.3955C99.7027 15.6229 98.6835 14.9248 98.2004 14.3013C97.7167 13.6891 97.4759 12.9165 97.4759 11.9821C97.4759 10.7685 97.8916 9.75364 98.7232 8.93809C99.5547 8.12187 100.63 7.71376 101.951 7.71376C102.53 7.71376 103.233 7.83727 104.059 8.08428C104.606 8.24538 104.972 8.32593 105.155 8.32593C105.326 8.32593 105.46 8.28834 105.557 8.21316C105.654 8.13798 105.767 7.97152 105.895 7.71376H106.426V7.7151ZM113.992 3.30174V8.15006H117.437V9.27774H113.992V18.8448C113.992 19.8007 114.128 20.4444 114.402 20.7773C114.676 21.1103 115.028 21.2767 115.456 21.2767C115.81 21.2767 116.154 21.1666 116.486 20.9465C116.819 20.7263 117.076 20.4014 117.259 19.9725H117.887C117.511 21.0243 116.979 21.8164 116.293 22.348C115.607 22.8796 114.899 23.1454 114.169 23.1454C113.675 23.1454 113.192 23.0092 112.72 22.7353C112.248 22.4614 111.899 22.0694 111.674 21.5593C111.448 21.0492 111.335 20.2625 111.335 19.1992V9.27774H109.001V8.74612C109.591 8.50985 110.195 8.10979 110.812 7.54595C111.429 6.98212 111.978 6.31357 112.462 5.54098C112.708 5.13287 113.052 4.38645 113.492 3.30241L113.992 3.30174Z" fill="#800080"/>
</g>
<defs>
<clipPath id="clip0_144_3688">
<rect width="118" height="30" fill="white"/>
</clipPath>
</defs>
</svg>
