<svg preserveAspectRatio="none" width="100%" height="100%" overflow="visible" style="display: block;" viewBox="0 0 8.54411 17.4138" fill="none" xmlns="http://www.w3.org/2000/svg">
<path id="Union" d="M7.67447 0.37793L7.67643 0.378907C7.7344 0.380722 7.75003 0.381185 7.76529 0.381836H7.77701L8.15201 0.398438L8.13443 0.773438L8.08854 1.77246L8.07096 2.14746L7.69596 2.12988C7.68874 2.12954 7.6908 2.12998 7.62565 2.12793V2.12695C7.43263 2.12179 7.22321 2.12483 7.03385 2.1377C6.85063 2.15015 6.73724 2.17013 6.69498 2.18359L6.69303 2.18457C6.48244 2.25139 6.2116 2.39363 5.87272 2.62891L5.87174 2.62988C5.78727 2.68817 5.62804 2.85515 5.45963 3.08496C5.31385 3.28392 5.1941 3.48769 5.12955 3.63574V8.32227H6.1276V10.0557H5.12955V13.7783C5.19396 13.9261 5.31364 14.1293 5.45963 14.3281C5.58618 14.5004 5.70765 14.638 5.79654 14.7207L5.87369 14.7842L5.87565 14.7861C6.21159 15.0203 6.48078 15.1611 6.69401 15.2275L6.69791 15.2295C6.73765 15.2423 6.85093 15.2628 7.03483 15.2754C7.22461 15.2884 7.43438 15.2903 7.6276 15.2852L7.69596 15.2822L8.07096 15.2646L8.08854 15.6396L8.13443 16.6387L8.15201 17.0137L7.77701 17.0303C7.75415 17.0313 7.7508 17.0319 7.67838 17.0342H7.67643C7.43648 17.0407 7.17121 17.0391 6.91471 17.0215C6.64021 17.0026 6.38532 16.9656 6.16959 16.8965V16.8975C5.74505 16.7654 5.3197 16.5319 4.8776 16.2236V16.2227C4.67428 16.0825 4.46225 15.8692 4.26334 15.6318C4.07633 15.8667 3.88271 16.078 3.7067 16.2158L3.70572 16.2168C3.30823 16.5256 2.85733 16.7471 2.38151 16.8965L2.38053 16.8955C2.16009 16.9661 1.9056 17.0035 1.63053 17.0225C1.37376 17.0401 1.10908 17.0416 0.86881 17.0352H0.866857C0.792999 17.0328 0.789536 17.0333 0.766271 17.0322L0.392247 17.0146L0.408849 16.6396L0.455724 15.6406L0.472326 15.2656L0.847326 15.2842C0.854946 15.2845 0.851752 15.2841 0.917638 15.2861H0.916661C1.11019 15.2913 1.32031 15.2894 1.51041 15.2764C1.69342 15.2638 1.80702 15.2428 1.85123 15.2285L1.85416 15.2275C2.15508 15.133 2.41688 15.0019 2.63053 14.8359C2.71517 14.7692 2.88562 14.5749 3.05924 14.3271C3.23317 14.079 3.35847 13.8509 3.39322 13.7344V10.0557H2.39127V8.32227H3.39322V3.67773C3.35812 3.56073 3.23267 3.33265 3.05924 3.08496C2.88558 2.83697 2.71601 2.64397 2.63346 2.5791L2.46256 2.45996C2.28351 2.34808 2.0786 2.25595 1.85026 2.18359H1.84928C1.80858 2.17057 1.69516 2.15022 1.51139 2.1377C1.3211 2.12475 1.11048 2.12173 0.916661 2.12695L0.917638 2.12793C0.851723 2.13 0.855079 2.12952 0.847326 2.12988L0.472326 2.14746L0.455724 1.77246L0.408849 0.773438L0.392247 0.399414L0.766271 0.381836C0.789666 0.380767 0.793376 0.381238 0.867833 0.378907L0.86881 0.37793C1.10879 0.371451 1.37333 0.374178 1.62955 0.391602C1.90499 0.410347 2.16031 0.446658 2.37955 0.516602C2.79835 0.649301 3.19522 0.834299 3.55436 1.08496L3.70572 1.19629L3.7067 1.19727C3.88247 1.33428 4.0773 1.54438 4.26432 1.7793C4.46249 1.54265 4.67361 1.32998 4.87565 1.19043L5.20572 0.973633C5.53096 0.772432 5.84725 0.61743 6.16178 0.517578C6.38275 0.446719 6.63919 0.410387 6.91568 0.391602C7.04362 0.382915 7.17353 0.377834 7.30143 0.375977L7.67447 0.37793Z" fill="var(--fill-0, black)" stroke="var(--stroke-0, white)" stroke-width="0.75"/>
</svg>
